<svg xmlns="http://www.w3.org/2000/svg" viewBox="0 0 900 640" fill="none">
  <defs>
    <linearGradient id="blob" x1="120" y1="520" x2="760" y2="80" gradientUnits="userSpaceOnUse">
      <stop stop-color="#112441"/>
      <stop offset="1" stop-color="#1a2746"/>
    </linearGradient>
    <linearGradient id="book" x1="430" y1="520" x2="650" y2="390" gradientUnits="userSpaceOnUse">
      <stop stop-color="#2de2a5"/>
      <stop offset="1" stop-color="#4fdcff"/>
    </linearGradient>
    <linearGradient id="shirt" x1="515" y1="210" x2="608" y2="319" gradientUnits="userSpaceOnUse">
      <stop stop-color="#2de2a5"/>
      <stop offset="1" stop-color="#16c38c"/>
    </linearGradient>
  </defs>
  <ellipse cx="480" cy="390" rx="330" ry="170" fill="url(#blob)"/>
  <path d="M245 150c40-70 126-106 202-89 18 4 20 29 2 36-69 26-98 35-171 80-16 10-43-12-33-27Z" fill="#243550"/>
  <path d="M708 128c29-50 78-78 120-74 21 2 31 25 18 42-21 27-48 53-92 76-21 11-58-15-46-44Z" fill="#1d3150"/>
  <rect x="650" y="120" width="118" height="350" rx="22" fill="#131f38"/>
  <path d="M709 96 767 210H651L709 96Z" fill="#8aa0bf"/>
  <rect x="387" y="358" width="234" height="136" rx="18" fill="#131f38"/>
  <path d="M387 392h234v60H387z" fill="#0d1529" opacity=".55"/>
  <rect x="405" y="332" width="244" height="130" rx="20" fill="url(#book)"/>
  <path d="M405 370h244v58H405z" fill="#f5ffff" opacity=".2"/>
  <rect x="348" y="402" width="70" height="108" rx="14" fill="#131f38"/>
  <rect x="336" y="420" width="94" height="18" rx="9" fill="#2de2a5" opacity=".88"/>
  <path d="M345 454h72" stroke="#354f79" stroke-width="8" stroke-linecap="round"/>
  <path d="M330 500c12-18 34-29 56-29h62c11 0 19 9 19 19 0 11-8 20-19 20H379c-29 0-55 14-71 38-7 11-22 14-34 7-13-8-17-25-10-37 18-29 39-48 66-58Z" fill="#eef6ff"/>
  <path d="M484 223c18-26 44-45 74-45 44 0 78 34 78 80v60l22 89c4 17-10 31-27 28l-22-4-20-72-8 114c-1 18-15 32-33 32-18 0-32-14-33-32l-7-88-19 103c-3 16-18 27-34 25-17-1-29-17-26-34l22-126-5-92c-2-39 12-63 38-88Z" fill="url(#shirt)"/>
  <rect x="529" y="286" width="29" height="15" rx="7.5" fill="#0d1529" opacity=".65"/>
  <path d="M494 166c0-37 30-67 67-67 37 0 67 30 67 67 0 37-30 67-67 67-37 0-67-30-67-67Z" fill="#efb8af"/>
  <path d="M495 167c6-45 46-78 91-72 32 5 45 31 43 57-6-4-16-8-29-8-4 20-18 36-40 42-17 5-33 3-49-4-2-5-9-11-16-15Z" fill="#20334f"/>
  <circle cx="526" cy="174" r="5" fill="#0d1529"/>
  <circle cx="571" cy="174" r="5" fill="#0d1529"/>
  <path d="M538 198c13 8 25 8 38 0" stroke="#9b5e61" stroke-width="4" stroke-linecap="round"/>
  <path d="M617 306l78 73" stroke="#20334f" stroke-width="20" stroke-linecap="round"/>
  <path d="M681 377c14-10 34-8 46 6 14 15 12 38-4 51-15 12-37 10-50-6-12-16-9-38 8-51Z" fill="#efb8af"/>
  <path d="M695 366l30-21c13-9 30-6 39 8l29 44c9 13 5 30-8 39l-36 25" stroke="#2de2a5" stroke-width="18" stroke-linecap="round"/>
  <path d="M468 491l-1 9c-4 34-31 60-66 65-34 5-65-14-80-45-8-18 0-37 18-45 15-7 33-1 42 12 4 7 12 12 20 11 11-1 18-10 19-21l1-14" fill="#1a2941"/>
  <path d="M511 498v7c0 35 27 64 62 66 35 2 66-22 76-55 5-18-6-36-24-42-16-5-33 3-40 17-4 8-11 13-20 14-11 1-20-7-22-18l-2-16" fill="#eff4ff"/>
  <circle cx="516" cy="510" r="10" fill="#0d1529"/>
  <circle cx="421" cy="506" r="10" fill="#0d1529"/>
  <path d="M640 280l-109 78" stroke="#0d1529" stroke-width="16" stroke-linecap="round"/>
  <rect x="580" y="250" width="80" height="58" rx="12" fill="#131f38" transform="rotate(14 580 250)"/>
  <path d="M605 267h28" stroke="#2de2a5" stroke-width="8" stroke-linecap="round" transform="rotate(14 605 267)"/>
  <path d="M602 286h44" stroke="#f6fbff" stroke-width="8" stroke-linecap="round" opacity=".8" transform="rotate(14 602 286)"/>
</svg>