<svg xmlns="http://www.w3.org/2000/svg" viewBox="0 0 720 460" fill="none"><rect width="720" height="460" rx="28" fill="#090f1f"/><rect x="0" y="0" width="720" height="460" rx="28" fill="url(#bg)"/><defs>
      <linearGradient id="bg" x1="0" y1="0" x2="720" y2="460" gradientUnits="userSpaceOnUse">
        <stop stop-color="#0f1c34"/><stop offset="1" stop-color="#0d1529"/>
      </linearGradient>
      <filter id="glow"><feGaussianBlur stdDeviation="14" result="b"/><feMerge><feMergeNode in="b"/><feMergeNode in="SourceGraphic"/></feMerge></filter>
    </defs><circle cx="275" cy="185" r="38" fill="#f472b6" opacity="0.24" filter="url(#glow)"/><circle cx="600" cy="115" r="44" fill="#38bdf8" opacity="0.18" filter="url(#glow)"/><circle cx="555" cy="390" r="52" fill="#2de2a5" opacity="0.18" filter="url(#glow)"/><g transform="translate(52 90)"><rect width="410" height="276" rx="18" fill="#f6fbff" opacity=".98"/><rect width="410" height="34" rx="18" fill="#eaf1ff"/><rect y="18" width="410" height="258" rx="0 0 18 18" fill="#f6fbff"/><circle cx="20" cy="17" r="5" fill="#fb7185"/><circle cx="38" cy="17" r="5" fill="#fbbf24"/><circle cx="56" cy="17" r="5" fill="#34d399"/><rect x="18" y="52" width="73.8" height="206" rx="14" fill="#0f1c34"/><rect x="32" y="72" width="36.9" height="10" rx="5" fill="#ffffff" opacity="0.9"/><rect x="32" y="102" width="45.8" height="10" rx="5" fill="#ffffff" opacity="0.9"/><rect x="32" y="132" width="54.6" height="10" rx="5" fill="#ffffff" opacity="0.4"/><rect x="32" y="162" width="36.9" height="10" rx="5" fill="#ffffff" opacity="0.4"/><rect x="32" y="192" width="45.8" height="10" rx="5" fill="#ffffff" opacity="0.4"/><rect x="109.8" y="52" width="282.2" height="60.7" rx="18" fill="#2de2a5"/><rect x="127.8" y="72" width="127.0" height="14" rx="7" fill="#0b1224" opacity=".35"/><rect x="127.8" y="100" width="197.5" height="14" rx="7" fill="#ffffff" opacity=".8"/><rect x="127.8" y="128" width="146.7" height="12" rx="6" fill="#ffffff" opacity=".45"/><rect x="109.8" y="124.7" width="135.1" height="74.0" rx="16" fill="#f472b6" opacity="0.95"/><rect x="123.8" y="138.7" width="70.3" height="12" rx="6" fill="#0d162c" opacity=".28"/><rect x="123.8" y="162.7" width="48.6" height="10" rx="5" fill="#ffffff" opacity=".72"/><rect x="256.9" y="124.7" width="135.1" height="74.0" rx="16" fill="#38bdf8" opacity="0.95"/><rect x="270.9" y="138.7" width="70.3" height="12" rx="6" fill="#0d162c" opacity=".28"/><rect x="270.9" y="162.7" width="48.6" height="10" rx="5" fill="#ffffff" opacity=".72"/><rect x="109.8" y="210.7" width="135.1" height="47.3" rx="16" fill="#38bdf8" opacity="0.95"/><rect x="123.8" y="224.7" width="70.3" height="12" rx="6" fill="#0d162c" opacity=".28"/><rect x="123.8" y="248.7" width="48.6" height="10" rx="5" fill="#ffffff" opacity=".72"/><rect x="256.9" y="210.7" width="135.1" height="47.3" rx="16" fill="#dbe7ff" opacity="1"/><rect x="270.9" y="224.7" width="70.3" height="12" rx="6" fill="#0d162c" opacity=".28"/><rect x="270.9" y="248.7" width="48.6" height="10" rx="5" fill="#ffffff" opacity=".72"/></g><g transform="translate(400 76) rotate(3 160 110)">transform="translate(0 0)"><rect width="258" height="160" rx="18" fill="#f6fbff" opacity=".98"/><rect width="258" height="34" rx="18" fill="#eaf1ff"/><rect y="18" width="258" height="142" rx="0 0 18 18" fill="#f6fbff"/><circle cx="20" cy="17" r="5" fill="#fb7185"/><circle cx="38" cy="17" r="5" fill="#fbbf24"/><circle cx="56" cy="17" r="5" fill="#34d399"/><rect x="18" y="52" width="70.0" height="90" rx="14" fill="#0f1c34"/><rect x="32" y="72" width="35.0" height="10" rx="5" fill="#ffffff" opacity="0.9"/><rect x="32" y="102" width="43.4" height="10" rx="5" fill="#ffffff" opacity="0.9"/><rect x="32" y="132" width="51.8" height="10" rx="5" fill="#ffffff" opacity="0.4"/><rect x="32" y="162" width="35.0" height="10" rx="5" fill="#ffffff" opacity="0.4"/><rect x="32" y="192" width="43.4" height="10" rx="5" fill="#ffffff" opacity="0.4"/><rect x="106" y="52" width="134" height="35.2" rx="18" fill="#f472b6"/><rect x="124" y="72" width="60.3" height="14" rx="7" fill="#0b1224" opacity=".35"/><rect x="124" y="100" width="93.8" height="14" rx="7" fill="#ffffff" opacity=".8"/><rect x="124" y="128" width="69.7" height="12" rx="6" fill="#ffffff" opacity=".45"/><rect x="106.0" y="99.2" width="134.0" height="42.8" rx="16" fill="#38bdf8" opacity="0.95"/><rect x="120.0" y="113.2" width="69.7" height="12" rx="6" fill="#0d162c" opacity=".28"/><rect x="120.0" y="137.2" width="48.2" height="10" rx="5" fill="#ffffff" opacity=".72"/></g><g transform="translate(314 230) rotate(-2 170 90)">transform="translate(0 0)"><rect width="300" height="170" rx="18" fill="#f6fbff" opacity=".98"/><rect width="300" height="34" rx="18" fill="#eaf1ff"/><rect y="18" width="300" height="152" rx="0 0 18 18" fill="#f6fbff"/><circle cx="20" cy="17" r="5" fill="#fb7185"/><circle cx="38" cy="17" r="5" fill="#fbbf24"/><circle cx="56" cy="17" r="5" fill="#34d399"/><rect x="18" y="52" width="70.0" height="100" rx="14" fill="#0f1c34"/><rect x="32" y="72" width="35.0" height="10" rx="5" fill="#ffffff" opacity="0.9"/><rect x="32" y="102" width="43.4" height="10" rx="5" fill="#ffffff" opacity="0.9"/><rect x="32" y="132" width="51.8" height="10" rx="5" fill="#ffffff" opacity="0.4"/><rect x="32" y="162" width="35.0" height="10" rx="5" fill="#ffffff" opacity="0.4"/><rect x="32" y="192" width="43.4" height="10" rx="5" fill="#ffffff" opacity="0.4"/><rect x="106" y="52" width="176" height="37.4" rx="18" fill="#38bdf8"/><rect x="124" y="72" width="79.2" height="14" rx="7" fill="#0b1224" opacity=".35"/><rect x="124" y="100" width="123.2" height="14" rx="7" fill="#ffffff" opacity=".8"/><rect x="124" y="128" width="91.5" height="12" rx="6" fill="#ffffff" opacity=".45"/><rect x="106.0" y="101.4" width="176.0" height="50.6" rx="16" fill="#2de2a5" opacity="0.95"/><rect x="120.0" y="115.4" width="91.5" height="12" rx="6" fill="#0d162c" opacity=".28"/><rect x="120.0" y="139.4" width="63.4" height="10" rx="5" fill="#ffffff" opacity=".72"/></g><rect x="24" y="410" width="112" height="22" rx="11" fill="#2de2a5" opacity=".95"/><text x="38" y="425" font-family="Segoe UI, Arial, sans-serif" font-size="14" fill="#090f1f" font-weight="700">Project 15</text></svg>