<svg xmlns="http://www.w3.org/2000/svg" viewBox="0 0 720 460" fill="none"><rect width="720" height="460" rx="28" fill="#090f1f"/><rect x="0" y="0" width="720" height="460" rx="28" fill="url(#bg)"/><defs>
      <linearGradient id="bg" x1="0" y1="0" x2="720" y2="460" gradientUnits="userSpaceOnUse">
        <stop stop-color="#111d36"/><stop offset="1" stop-color="#0d1529"/>
      </linearGradient>
      <filter id="glow"><feGaussianBlur stdDeviation="14" result="b"/><feMerge><feMergeNode in="b"/><feMergeNode in="SourceGraphic"/></feMerge></filter>
    </defs><circle cx="171" cy="269" r="38" fill="#2de2a5" opacity="0.24" filter="url(#glow)"/><circle cx="600" cy="171" r="44" fill="#4fdcff" opacity="0.18" filter="url(#glow)"/><circle cx="323" cy="390" r="52" fill="#7a6bff" opacity="0.18" filter="url(#glow)"/><g transform="translate(70 72)"><rect width="360" height="248" rx="18" fill="#f6fbff" opacity=".98"/><rect width="360" height="34" rx="18" fill="#eaf1ff"/><rect y="18" width="360" height="230" rx="0 0 18 18" fill="#f6fbff"/><circle cx="20" cy="17" r="5" fill="#fb7185"/><circle cx="38" cy="17" r="5" fill="#fbbf24"/><circle cx="56" cy="17" r="5" fill="#34d399"/><rect x="18" y="52" width="70.0" height="178" rx="14" fill="#111d36"/><rect x="32" y="72" width="35.0" height="10" rx="5" fill="#ffffff" opacity="0.9"/><rect x="32" y="102" width="43.4" height="10" rx="5" fill="#ffffff" opacity="0.9"/><rect x="32" y="132" width="51.8" height="10" rx="5" fill="#ffffff" opacity="0.4"/><rect x="32" y="162" width="35.0" height="10" rx="5" fill="#ffffff" opacity="0.4"/><rect x="32" y="192" width="43.4" height="10" rx="5" fill="#ffffff" opacity="0.4"/><rect x="106" y="52" width="236" height="54.6" rx="18" fill="#2de2a5"/><rect x="124" y="72" width="106.2" height="14" rx="7" fill="#0b1224" opacity=".35"/><rect x="124" y="100" width="165.2" height="14" rx="7" fill="#ffffff" opacity=".8"/><rect x="124" y="128" width="122.7" height="12" rx="6" fill="#ffffff" opacity=".45"/><rect x="106.0" y="118.6" width="112.0" height="74.0" rx="16" fill="#4fdcff" opacity="0.95"/><rect x="120.0" y="132.6" width="58.2" height="12" rx="6" fill="#0d162c" opacity=".28"/><rect x="120.0" y="156.6" width="40.3" height="10" rx="5" fill="#ffffff" opacity=".72"/><rect x="230.0" y="118.6" width="112.0" height="74.0" rx="16" fill="#7a6bff" opacity="0.95"/><rect x="244.0" y="132.6" width="58.2" height="12" rx="6" fill="#0d162c" opacity=".28"/><rect x="244.0" y="156.6" width="40.3" height="10" rx="5" fill="#ffffff" opacity=".72"/><rect x="106.0" y="204.6" width="112.0" height="40.0" rx="16" fill="#7a6bff" opacity="0.95"/><rect x="120.0" y="218.6" width="58.2" height="12" rx="6" fill="#0d162c" opacity=".28"/><rect x="120.0" y="242.6" width="40.3" height="10" rx="5" fill="#ffffff" opacity=".72"/><rect x="230.0" y="204.6" width="112.0" height="40.0" rx="16" fill="#dbe7ff" opacity="1"/><rect x="244.0" y="218.6" width="58.2" height="12" rx="6" fill="#0d162c" opacity=".28"/><rect x="244.0" y="242.6" width="40.3" height="10" rx="5" fill="#ffffff" opacity=".72"/></g><g transform="translate(360 120) rotate(-3 190 120)">transform="translate(0 0)"><rect width="280" height="186" rx="18" fill="#f6fbff" opacity=".98"/><rect width="280" height="34" rx="18" fill="#eaf1ff"/><rect y="18" width="280" height="168" rx="0 0 18 18" fill="#f6fbff"/><circle cx="20" cy="17" r="5" fill="#fb7185"/><circle cx="38" cy="17" r="5" fill="#fbbf24"/><circle cx="56" cy="17" r="5" fill="#34d399"/><rect x="18" y="52" width="70.0" height="116" rx="14" fill="#111d36"/><rect x="32" y="72" width="35.0" height="10" rx="5" fill="#ffffff" opacity="0.9"/><rect x="32" y="102" width="43.4" height="10" rx="5" fill="#ffffff" opacity="0.9"/><rect x="32" y="132" width="51.8" height="10" rx="5" fill="#ffffff" opacity="0.4"/><rect x="32" y="162" width="35.0" height="10" rx="5" fill="#ffffff" opacity="0.4"/><rect x="32" y="192" width="43.4" height="10" rx="5" fill="#ffffff" opacity="0.4"/><rect x="106" y="52" width="156" height="40.9" rx="18" fill="#7a6bff"/><rect x="124" y="72" width="70.2" height="14" rx="7" fill="#0b1224" opacity=".35"/><rect x="124" y="100" width="109.2" height="14" rx="7" fill="#ffffff" opacity=".8"/><rect x="124" y="128" width="81.1" height="12" rx="6" fill="#ffffff" opacity=".45"/><rect x="106.0" y="104.9" width="156.0" height="63.1" rx="16" fill="#2de2a5" opacity="0.95"/><rect x="120.0" y="118.9" width="81.1" height="12" rx="6" fill="#0d162c" opacity=".28"/><rect x="120.0" y="142.9" width="56.2" height="10" rx="5" fill="#ffffff" opacity=".72"/></g><g transform="translate(160 250) rotate(4 190 120)">transform="translate(0 0)"><rect width="390" height="190" rx="18" fill="#f6fbff" opacity=".98"/><rect width="390" height="34" rx="18" fill="#eaf1ff"/><rect y="18" width="390" height="172" rx="0 0 18 18" fill="#f6fbff"/><circle cx="20" cy="17" r="5" fill="#fb7185"/><circle cx="38" cy="17" r="5" fill="#fbbf24"/><circle cx="56" cy="17" r="5" fill="#34d399"/><rect x="18" y="52" width="70.2" height="120" rx="14" fill="#111d36"/><rect x="32" y="72" width="35.1" height="10" rx="5" fill="#ffffff" opacity="0.9"/><rect x="32" y="102" width="43.5" height="10" rx="5" fill="#ffffff" opacity="0.9"/><rect x="32" y="132" width="51.9" height="10" rx="5" fill="#ffffff" opacity="0.4"/><rect x="32" y="162" width="35.1" height="10" rx="5" fill="#ffffff" opacity="0.4"/><rect x="32" y="192" width="43.5" height="10" rx="5" fill="#ffffff" opacity="0.4"/><rect x="106.2" y="52" width="265.8" height="41.8" rx="18" fill="#4fdcff"/><rect x="124.2" y="72" width="119.6" height="14" rx="7" fill="#0b1224" opacity=".35"/><rect x="124.2" y="100" width="186.1" height="14" rx="7" fill="#ffffff" opacity=".8"/><rect x="124.2" y="128" width="138.2" height="12" rx="6" fill="#ffffff" opacity=".45"/><rect x="106.2" y="105.8" width="126.9" height="66.2" rx="16" fill="#7a6bff" opacity="0.95"/><rect x="120.2" y="119.8" width="66.0" height="12" rx="6" fill="#0d162c" opacity=".28"/><rect x="120.2" y="143.8" width="45.7" height="10" rx="5" fill="#ffffff" opacity=".72"/><rect x="245.1" y="105.8" width="126.9" height="66.2" rx="16" fill="#2de2a5" opacity="0.95"/><rect x="259.1" y="119.8" width="66.0" height="12" rx="6" fill="#0d162c" opacity=".28"/><rect x="259.1" y="143.8" width="45.7" height="10" rx="5" fill="#ffffff" opacity=".72"/></g><rect x="24" y="410" width="112" height="22" rx="11" fill="#2de2a5" opacity=".95"/><text x="38" y="425" font-family="Segoe UI, Arial, sans-serif" font-size="14" fill="#090f1f" font-weight="700">Project 07</text></svg>