<svg xmlns="http://www.w3.org/2000/svg" viewBox="0 0 720 460" fill="none"><rect width="720" height="460" rx="28" fill="#090f1f"/><rect x="0" y="0" width="720" height="460" rx="28" fill="url(#bg)"/><defs>
      <linearGradient id="bg" x1="0" y1="0" x2="720" y2="460" gradientUnits="userSpaceOnUse">
        <stop stop-color="#11182b"/><stop offset="1" stop-color="#0d1529"/>
      </linearGradient>
      <filter id="glow"><feGaussianBlur stdDeviation="14" result="b"/><feMerge><feMergeNode in="b"/><feMergeNode in="SourceGraphic"/></feMerge></filter>
    </defs><circle cx="223" cy="377" r="38" fill="#2dd4bf" opacity="0.24" filter="url(#glow)"/><circle cx="600" cy="143" r="44" fill="#93c5fd" opacity="0.18" filter="url(#glow)"/><circle cx="439" cy="390" r="52" fill="#fb7185" opacity="0.18" filter="url(#glow)"/><g transform="translate(72 66)"><rect width="260" height="320" rx="18" fill="#f6fbff" opacity=".98"/><rect width="260" height="34" rx="18" fill="#eaf1ff"/><rect y="18" width="260" height="302" rx="0 0 18 18" fill="#f6fbff"/><circle cx="20" cy="17" r="5" fill="#fb7185"/><circle cx="38" cy="17" r="5" fill="#fbbf24"/><circle cx="56" cy="17" r="5" fill="#34d399"/><rect x="18" y="52" width="70.0" height="250" rx="14" fill="#11182b"/><rect x="32" y="72" width="35.0" height="10" rx="5" fill="#ffffff" opacity="0.9"/><rect x="32" y="102" width="43.4" height="10" rx="5" fill="#ffffff" opacity="0.9"/><rect x="32" y="132" width="51.8" height="10" rx="5" fill="#ffffff" opacity="0.4"/><rect x="32" y="162" width="35.0" height="10" rx="5" fill="#ffffff" opacity="0.4"/><rect x="32" y="192" width="43.4" height="10" rx="5" fill="#ffffff" opacity="0.4"/><rect x="106" y="52" width="136" height="70.4" rx="18" fill="#2dd4bf"/><rect x="124" y="72" width="61.2" height="14" rx="7" fill="#0b1224" opacity=".35"/><rect x="124" y="100" width="95.2" height="14" rx="7" fill="#ffffff" opacity=".8"/><rect x="124" y="128" width="70.7" height="12" rx="6" fill="#ffffff" opacity=".45"/><rect x="106.0" y="134.4" width="136.0" height="74.0" rx="16" fill="#93c5fd" opacity="0.95"/><rect x="120.0" y="148.4" width="70.7" height="12" rx="6" fill="#0d162c" opacity=".28"/><rect x="120.0" y="172.4" width="49.0" height="10" rx="5" fill="#ffffff" opacity=".72"/><rect x="106.0" y="220.4" width="136.0" height="56.0" rx="16" fill="#fb7185" opacity="0.95"/><rect x="120.0" y="234.4" width="70.7" height="12" rx="6" fill="#0d162c" opacity=".28"/><rect x="120.0" y="258.4" width="49.0" height="10" rx="5" fill="#ffffff" opacity=".72"/></g><g transform="translate(286 48) rotate(2 190 120)">transform="translate(0 0)"><rect width="360" height="260" rx="18" fill="#f6fbff" opacity=".98"/><rect width="360" height="34" rx="18" fill="#eaf1ff"/><rect y="18" width="360" height="242" rx="0 0 18 18" fill="#f6fbff"/><circle cx="20" cy="17" r="5" fill="#fb7185"/><circle cx="38" cy="17" r="5" fill="#fbbf24"/><circle cx="56" cy="17" r="5" fill="#34d399"/><rect x="18" y="52" width="70.0" height="190" rx="14" fill="#11182b"/><rect x="32" y="72" width="35.0" height="10" rx="5" fill="#ffffff" opacity="0.9"/><rect x="32" y="102" width="43.4" height="10" rx="5" fill="#ffffff" opacity="0.9"/><rect x="32" y="132" width="51.8" height="10" rx="5" fill="#ffffff" opacity="0.4"/><rect x="32" y="162" width="35.0" height="10" rx="5" fill="#ffffff" opacity="0.4"/><rect x="32" y="192" width="43.4" height="10" rx="5" fill="#ffffff" opacity="0.4"/><rect x="106" y="52" width="236" height="57.2" rx="18" fill="#fb7185"/><rect x="124" y="72" width="106.2" height="14" rx="7" fill="#0b1224" opacity=".35"/><rect x="124" y="100" width="165.2" height="14" rx="7" fill="#ffffff" opacity=".8"/><rect x="124" y="128" width="122.7" height="12" rx="6" fill="#ffffff" opacity=".45"/><rect x="106.0" y="121.2" width="112.0" height="74.0" rx="16" fill="#2dd4bf" opacity="0.95"/><rect x="120.0" y="135.2" width="58.2" height="12" rx="6" fill="#0d162c" opacity=".28"/><rect x="120.0" y="159.2" width="40.3" height="10" rx="5" fill="#ffffff" opacity=".72"/><rect x="230.0" y="121.2" width="112.0" height="74.0" rx="16" fill="#93c5fd" opacity="0.95"/><rect x="244.0" y="135.2" width="58.2" height="12" rx="6" fill="#0d162c" opacity=".28"/><rect x="244.0" y="159.2" width="40.3" height="10" rx="5" fill="#ffffff" opacity=".72"/><rect x="106.0" y="207.2" width="112.0" height="40.0" rx="16" fill="#93c5fd" opacity="0.95"/><rect x="120.0" y="221.2" width="58.2" height="12" rx="6" fill="#0d162c" opacity=".28"/><rect x="120.0" y="245.2" width="40.3" height="10" rx="5" fill="#ffffff" opacity=".72"/><rect x="230.0" y="207.2" width="112.0" height="40.0" rx="16" fill="#dbe7ff" opacity="1"/><rect x="244.0" y="221.2" width="58.2" height="12" rx="6" fill="#0d162c" opacity=".28"/><rect x="244.0" y="245.2" width="40.3" height="10" rx="5" fill="#ffffff" opacity=".72"/></g><g transform="translate(404 244) rotate(-4 160 100)">transform="translate(0 0)"><rect width="240" height="148" rx="18" fill="#f6fbff" opacity=".98"/><rect width="240" height="34" rx="18" fill="#eaf1ff"/><rect y="18" width="240" height="130" rx="0 0 18 18" fill="#f6fbff"/><circle cx="20" cy="17" r="5" fill="#fb7185"/><circle cx="38" cy="17" r="5" fill="#fbbf24"/><circle cx="56" cy="17" r="5" fill="#34d399"/><rect x="18" y="52" width="70.0" height="78" rx="14" fill="#11182b"/><rect x="32" y="72" width="35.0" height="10" rx="5" fill="#ffffff" opacity="0.9"/><rect x="32" y="102" width="43.4" height="10" rx="5" fill="#ffffff" opacity="0.9"/><rect x="32" y="132" width="51.8" height="10" rx="5" fill="#ffffff" opacity="0.4"/><rect x="32" y="162" width="35.0" height="10" rx="5" fill="#ffffff" opacity="0.4"/><rect x="32" y="192" width="43.4" height="10" rx="5" fill="#ffffff" opacity="0.4"/><rect x="106" y="52" width="116" height="32.6" rx="18" fill="#93c5fd"/><rect x="124" y="72" width="52.2" height="14" rx="7" fill="#0b1224" opacity=".35"/><rect x="124" y="100" width="81.2" height="14" rx="7" fill="#ffffff" opacity=".8"/><rect x="124" y="128" width="60.3" height="12" rx="6" fill="#ffffff" opacity=".45"/><rect x="106.0" y="96.6" width="116.0" height="40.0" rx="16" fill="#fb7185" opacity="0.95"/><rect x="120.0" y="110.6" width="60.3" height="12" rx="6" fill="#0d162c" opacity=".28"/><rect x="120.0" y="134.6" width="41.8" height="10" rx="5" fill="#ffffff" opacity=".72"/></g><rect x="24" y="410" width="112" height="22" rx="11" fill="#2de2a5" opacity=".95"/><text x="38" y="425" font-family="Segoe UI, Arial, sans-serif" font-size="14" fill="#090f1f" font-weight="700">Project 11</text></svg>